<?xml version="1.0" encoding="UTF-8"?>
<!DOCTYPE svg PUBLIC "-//W3C//DTD SVG 1.1//EN" "http://www.w3.org/Graphics/SVG/1.1/DTD/svg11.dtd">
<!-- Creator: CorelDRAW -->
<svg xmlns="http://www.w3.org/2000/svg" xml:space="preserve" width="141px" height="141px" version="1.1" style="shape-rendering:geometricPrecision; text-rendering:geometricPrecision; image-rendering:optimizeQuality; fill-rule:evenodd; clip-rule:evenodd"
viewBox="0 0 141 141"
 xmlns:xlink="http://www.w3.org/1999/xlink"
 xmlns:xodm="http://www.corel.com/coreldraw/odm/2003">
 <defs>
  <style type="text/css">
   <![CDATA[
    .fil1 {fill:#373122;fill-rule:nonzero}
    .fil0 {fill:#F0A024;fill-rule:nonzero}
   ]]>
  </style>
 </defs>
 <g id="Layer_x0020_1">
  <metadata id="CorelCorpID_0Corel-Layer"/>
  <g id="_3112C_Illustrator2C_Adobe2C_Ai">
   <g>
    <rect class="fil0" width="141" height="141"/>
    <rect class="fil1" x="6.2" y="6.2" width="128.59" height="128.59"/>
    <g>
     <g>
      <g id="XMLID_335_">
       <g id="XMLID_341_">
        <g>
         <path id="XMLID_342_" class="fil0" d="M48.76 80.26l-5.09 16.88c-0.09,0.58 -0.34,0.78 -0.84,0.78l-8.51 0c-0.58,0 -0.75,-0.3 -0.58,-0.97 4.5,-14.85 12.1,-39.58 17.44,-56.36 0.25,-0.97 0.5,-1.94 0.66,-5.34 0,-0.39 0.25,-0.58 0.5,-0.58l11.52 0c0.42,0 0.5,0.09 0.67,0.48 6.17,19.89 12.93,41.81 19.27,61.89 0.17,0.58 0,0.88 -0.5,0.88l-9.35 0c-0.41,0 -0.58,-0.2 -0.75,-0.59l-5.34 -17.07 -19.1 0 0 0zm16.85 -9.51c-1.67,-6.49 -5.76,-19.59 -7.43,-26.38l-0.08 0c-1.25,6.4 -4.67,17.36 -7.17,26.38l14.68 0z"/>
        </g>
       </g>
       <g id="XMLID_337_">
        <g>
         <path id="XMLID_338_" class="fil0" d="M92.26 38.34c0,-3.59 2.37,-6.02 5.57,-6.02 3.36,0 5.41,2.43 5.41,6.02 0,3.68 -2.21,6.01 -5.49,6.01 -3.28,0 -5.49,-2.33 -5.49,-6.01zm0.57 13.19c0,-0.58 0.16,-0.78 0.57,-0.78l8.69 0c0.49,0 0.66,0.1 0.66,0.78l0 45.59c0,0.49 -0.17,0.78 -0.66,0.78l-8.52 0c-0.49,0 -0.74,-0.2 -0.74,-0.87l0 -45.5z"/>
        </g>
       </g>
      </g>
     </g>
    </g>
   </g>
  </g>
 </g>
</svg>
