<?xml version="1.0" encoding="UTF-8"?>
<!DOCTYPE svg PUBLIC "-//W3C//DTD SVG 1.1//EN" "http://www.w3.org/Graphics/SVG/1.1/DTD/svg11.dtd">
<!-- Creator: CorelDRAW -->
<svg xmlns="http://www.w3.org/2000/svg" xml:space="preserve" width="142px" height="142px" version="1.1" style="shape-rendering:geometricPrecision; text-rendering:geometricPrecision; image-rendering:optimizeQuality; fill-rule:evenodd; clip-rule:evenodd"
viewBox="0 0 142 142"
 xmlns:xlink="http://www.w3.org/1999/xlink"
 xmlns:xodm="http://www.corel.com/coreldraw/odm/2003">
 <defs>
  <style type="text/css">
   <![CDATA[
    .fil1 {fill:#260600;fill-rule:nonzero}
    .fil0 {fill:#FF4A19;fill-rule:nonzero}
   ]]>
  </style>
 </defs>
 <g id="Layer_x0020_1">
  <metadata id="CorelCorpID_0Corel-Layer"/>
  <g id="_322C_Animate2C_Adobe">
   <g>
    <rect class="fil0" width="142" height="142"/>
    <rect class="fil1" x="6.25" y="6.25" width="129.5" height="129.5"/>
    <g>
     <g>
      <g>
       <path class="fil0" d="M41.04 81.37l-5.11 17.41c-0.09,0.59 -0.35,0.79 -0.86,0.79l-8.57 0c-0.6,0 -0.77,-0.31 -0.6,-0.99 4.54,-15.31 12.18,-40.81 17.55,-58.14 0.26,-0.99 0.51,-1.99 0.68,-5.51 0,-0.4 0.26,-0.59 0.51,-0.59l11.59 0c0.43,0 0.51,0.11 0.68,0.51 6.22,20.5 13.04,43.11 19.4,63.81 0.17,0.6 0,0.91 -0.51,0.91l-9.4 0c-0.43,0 -0.6,-0.2 -0.77,-0.6l-5.37 -17.6 -19.22 0 0 0zm16.98 -9.8c-1.67,-6.71 -5.79,-20.22 -7.47,-27.21l-0.08 0c-1.25,6.59 -4.72,17.92 -7.22,27.21l14.77 0z"/>
       <path class="fil0" d="M80.88 62.45c0,-3.41 0.14,-6.3 -0.03,-8.29 0,-0.51 0.09,-0.8 0.57,-0.8 0,0 13.24,-4.03 21.16,-3.4 6.33,0.51 13.55,4.09 13.55,20.3l0 28.52c0,0.51 -0.26,0.79 -0.66,0.79l-8.57 0c-0.49,0 -0.74,-0.31 -0.74,-0.91l0 -28.51c0,-6.51 -2.7,-10.96 -7.64,-10.96 -3.07,0 -4.46,0.48 -7.7,2.04l0 37.55c0,0.59 -0.17,0.79 -0.65,0.79l-8.66 0c-0.43,0 -0.57,-0.2 -0.57,-0.91l0 -36.21 -0.06 0z"/>
      </g>
     </g>
    </g>
   </g>
  </g>
 </g>
</svg>
