<?xml version="1.0" encoding="UTF-8"?>
<!DOCTYPE svg PUBLIC "-//W3C//DTD SVG 1.1//EN" "http://www.w3.org/Graphics/SVG/1.1/DTD/svg11.dtd">
<!-- Creator: CorelDRAW -->
<svg xmlns="http://www.w3.org/2000/svg" xml:space="preserve" width="150px" height="150px" version="1.1" style="shape-rendering:geometricPrecision; text-rendering:geometricPrecision; image-rendering:optimizeQuality; fill-rule:evenodd; clip-rule:evenodd"
viewBox="0 0 150 150"
 xmlns:xlink="http://www.w3.org/1999/xlink"
 xmlns:xodm="http://www.corel.com/coreldraw/odm/2003">
 <defs>
  <style type="text/css">
   <![CDATA[
    .fil0 {fill:#2299F8;fill-rule:nonzero}
    .fil1 {fill:#FCFCFC;fill-rule:nonzero}
   ]]>
  </style>
 </defs>
 <g id="Layer_x0020_1">
  <metadata id="CorelCorpID_0Corel-Layer"/>
  <g id="_3121-css3">
   <g>
    <g>
     <g>
      <g>
       <path class="fil0" d="M10.68 1.29l11.71 132.68 52.61 14.74 52.59 -14.74 11.73 -132.68 -128.64 0zm0 0z"/>
      </g>
      <path class="fil1" d="M114.27 44.68l-1.48 16.67 -4.46 49.96 -33.33 9.24 -0.03 0.01 -33.31 -9.25 -2.32 -26.13 16.32 0 1.21 13.55 18.11 4.9 0.01 0 18.14 -4.91 2.47 -22.58 -57.04 0.16 -1.62 -15.44 60.03 -0.71 1.21 -16.53 -62.85 0.18 -1.06 -15.38 81.45 0 -1.45 16.26zm0 0z"/>
     </g>
    </g>
   </g>
  </g>
  <g id="Layer_1">
  </g>
 </g>
</svg>
