<?xml version="1.0" encoding="UTF-8"?>
<!DOCTYPE svg PUBLIC "-//W3C//DTD SVG 1.1//EN" "http://www.w3.org/Graphics/SVG/1.1/DTD/svg11.dtd">
<!-- Creator: CorelDRAW -->
<svg xmlns="http://www.w3.org/2000/svg" xml:space="preserve" width="150px" height="150px" version="1.1" style="shape-rendering:geometricPrecision; text-rendering:geometricPrecision; image-rendering:optimizeQuality; fill-rule:evenodd; clip-rule:evenodd"
viewBox="0 0 150 150"
 xmlns:xlink="http://www.w3.org/1999/xlink"
 xmlns:xodm="http://www.corel.com/coreldraw/odm/2003">
 <defs>
  <style type="text/css">
   <![CDATA[
    .fil0 {fill:#3E75C3}
    .fil1 {fill:white}
   ]]>
  </style>
 </defs>
 <g id="Layer_x0020_1">
  <metadata id="CorelCorpID_0Corel-Layer"/>
  <g id="_105553214337184">
   <path class="fil0" d="M18.51 147.63l112.98 0c8.91,0 16.14,-7.23 16.14,-16.14l0 -112.98c0,-8.91 -7.23,-16.14 -16.14,-16.14l-112.98 0c-8.91,0 -16.14,7.23 -16.14,16.14l0 112.98c0,8.91 7.23,16.14 16.14,16.14z"/>
   <path class="fil1" d="M75 26.58c-26.74,0 -48.42,21.76 -48.42,48.61 0,21.48 13.87,39.7 33.12,46.13 2.42,0.45 3.3,-1.06 3.3,-2.34 0,-1.16 -0.04,-4.21 -0.06,-8.27 -13.48,2.94 -16.32,-6.52 -16.32,-6.52 -2.2,-5.61 -5.37,-7.11 -5.37,-7.11 -4.4,-3.01 0.33,-2.95 0.33,-2.95 4.86,0.34 7.42,5.01 7.42,5.01 4.32,7.42 11.33,5.28 14.09,4.04 0.44,-3.15 1.69,-5.29 3.07,-6.5 -10.75,-1.23 -22.05,-5.4 -22.05,-24.03 0,-5.31 1.88,-9.64 4.98,-13.04 -0.5,-1.24 -2.16,-6.17 0.47,-12.87 0,0 4.07,-1.3 13.32,4.99 3.86,-1.08 8.01,-1.62 12.12,-1.64 4.12,0.02 8.26,0.56 12.13,1.64 9.24,-6.29 13.3,-4.99 13.3,-4.99 2.64,6.7 0.98,11.63 0.48,12.87 3.1,3.4 4.98,7.73 4.98,13.04 0,18.68 -11.33,22.79 -22.11,23.99 1.74,1.5 3.28,4.46 3.28,9 0,6.5 -0.06,11.74 -0.06,13.34 0,1.3 0.88,2.81 3.33,2.33 19.23,-6.44 33.09,-24.65 33.09,-46.12 0,-26.85 -21.68,-48.61 -48.42,-48.61z"/>
  </g>
 </g>
</svg>
