<?xml version="1.0" encoding="UTF-8"?>
<!DOCTYPE svg PUBLIC "-//W3C//DTD SVG 1.1//EN" "http://www.w3.org/Graphics/SVG/1.1/DTD/svg11.dtd">
<!-- Creator: CorelDRAW -->
<svg xmlns="http://www.w3.org/2000/svg" xml:space="preserve" width="150px" height="150px" version="1.1" style="shape-rendering:geometricPrecision; text-rendering:geometricPrecision; image-rendering:optimizeQuality; fill-rule:evenodd; clip-rule:evenodd"
viewBox="0 0 150 150"
 xmlns:xlink="http://www.w3.org/1999/xlink"
 xmlns:xodm="http://www.corel.com/coreldraw/odm/2003">
 <defs>
  <style type="text/css">
   <![CDATA[
    .fil0 {fill:#0769AD;fill-rule:nonzero}
    .fil1 {fill:#78CFF5;fill-rule:nonzero}
   ]]>
  </style>
 </defs>
 <g id="Layer_x0020_1">
  <metadata id="CorelCorpID_0Corel-Layer"/>
  <g id="_105553207856576">
   <g>
    <g>
     <circle class="fil0" cx="75" cy="75" r="72.01"/>
    </g>
   </g>
   <g id="Layer_6">
    <g>
     <g>
      <g>
       <path class="fil1" d="M35.82 54.69c-7.49,10.8 -6.62,24.92 -0.86,36.44 0.14,0.29 0.29,0.58 0.43,0.86 0.15,0.15 0.15,0.29 0.29,0.58 0,0.15 0.14,0.15 0.14,0.29 0.15,0.14 0.15,0.29 0.29,0.58 0.15,0.28 0.43,0.57 0.58,1 0.14,0.15 0.14,0.29 0.29,0.58 0.14,0.29 0.43,0.72 0.57,1.01 0.15,0.14 0.15,0.29 0.29,0.43 0.29,0.43 0.58,0.86 0.86,1.3l0 0 0.15 0.14c0.29,0.43 0.58,0.72 0.86,1.15 0.15,0.15 0.15,0.29 0.29,0.43 0.29,0.29 0.58,0.58 0.72,1.01 0.14,0.15 0.14,0.29 0.29,0.29 0.29,0.43 0.72,0.87 1.15,1.3l0 0 0 0c0.43,0.43 0.72,0.72 1.15,1.15 0.15,0.14 0.29,0.29 0.29,0.29 0.29,0.29 0.58,0.57 0.87,0.86 0.14,0.15 0.28,0.29 0.43,0.29 0.43,0.43 0.86,0.72 1.15,1.15l0 0 0.14 0.15c0.44,0.28 0.72,0.57 1.16,0.86 0.14,0.14 0.28,0.29 0.43,0.43 0.29,0.29 0.57,0.43 0.86,0.72 0.15,0.15 0.29,0.29 0.43,0.43 0.29,0.29 0.73,0.44 1.01,0.73 0.15,0.14 0.29,0.14 0.43,0.28 0,0 0,0 0.15,0.15 0.29,0.28 0.72,0.43 1.01,0.72 0.14,0.14 0.29,0.14 0.43,0.28 0.57,0.29 1.01,0.58 1.58,1.01 0.15,0.15 0.29,0.15 0.44,0.29 0.43,0.29 0.72,0.43 1.15,0.72 0.14,0.15 0.43,0.29 0.57,0.29 0.29,0.14 0.58,0.29 0.87,0.43 0,0 0.14,0 0.14,0.15 0.15,0 0.29,0.14 0.29,0.14 0.43,0.14 0.86,0.43 1.3,0.58 0.14,0 0.14,0.14 0.28,0.14 0.58,0.29 1.01,0.43 1.59,0.58 0.14,0 0.29,0.14 0.43,0.14 0.43,0.14 1.01,0.43 1.44,0.58l0.15 0c0.57,0.14 1.15,0.43 1.58,0.57 0.14,0 0.29,0.15 0.43,0.15 0.58,0.14 1.15,0.43 1.73,0.43 36.44,6.62 47.1,-21.89 47.1,-21.89 -8.93,11.66 -24.78,14.69 -39.61,11.23 -0.58,-0.14 -1.15,-0.29 -1.73,-0.43 -0.14,0 -0.29,-0.15 -0.43,-0.15 -0.58,-0.14 -1.01,-0.28 -1.59,-0.57 -0.14,0 -0.14,0 -0.28,-0.15 -0.44,-0.14 -1.01,-0.28 -1.44,-0.57 -0.15,0 -0.29,-0.15 -0.44,-0.15 -0.57,-0.14 -1,-0.43 -1.58,-0.57 -0.14,0 -0.14,-0.15 -0.29,-0.15 -0.43,-0.14 -0.86,-0.43 -1.29,-0.57 -0.15,0 -0.29,-0.15 -0.44,-0.15 -0.28,-0.14 -0.72,-0.29 -1,-0.57 -0.29,-0.15 -0.44,-0.29 -0.72,-0.29 -0.44,-0.29 -0.87,-0.43 -1.16,-0.72 -0.14,-0.14 -0.28,-0.14 -0.43,-0.29 -0.57,-0.29 -1.01,-0.58 -1.58,-1.01 -0.15,-0.14 -0.29,-0.14 -0.44,-0.29 -0.43,-0.28 -0.71,-0.43 -1.15,-0.72 -0.14,-0.14 -0.29,-0.14 -0.29,-0.28 -0.28,-0.29 -0.72,-0.44 -1,-0.72 -0.15,-0.15 -0.29,-0.29 -0.44,-0.29 -0.28,-0.29 -0.57,-0.43 -1,-0.72 -0.15,-0.15 -0.29,-0.29 -0.44,-0.29 -0.43,-0.29 -0.72,-0.72 -1.15,-1.01 0,0 -0.14,0 -0.14,-0.14 -0.43,-0.43 -0.87,-0.72 -1.3,-1.15 -0.14,-0.15 -0.29,-0.29 -0.29,-0.29 -0.28,-0.29 -0.57,-0.58 -0.86,-0.87 -0.14,-0.14 -0.29,-0.28 -0.29,-0.28 -0.43,-0.44 -0.72,-0.73 -1.15,-1.16l0 0c-0.43,-0.43 -0.72,-0.86 -1.15,-1.29 -0.15,-0.15 -0.15,-0.29 -0.29,-0.29 -0.29,-0.29 -0.58,-0.72 -0.87,-1.01 -0.14,-0.14 -0.14,-0.29 -0.28,-0.43 -0.29,-0.43 -0.58,-0.87 -0.87,-1.3 -8.35,-11.38 -11.23,-26.93 -4.61,-39.75l-5.33 7.2zm0 0l0 0 0 0z"/>
      </g>
      <g>
       <path class="fil1" d="M59.16 45.47c-5.48,7.93 -5.19,18.3 -0.87,26.65 0.72,1.44 1.59,2.74 2.45,4.03 0.87,1.15 1.73,2.6 2.74,3.46 0.43,0.43 0.86,0.86 1.29,1.3 0.15,0.14 0.15,0.14 0.29,0.28 0.43,0.43 0.87,0.72 1.3,1.16l0 0 0 0c0.43,0.43 1.01,0.86 1.44,1.15 0.14,0.14 0.29,0.14 0.29,0.29 0.43,0.43 1,0.72 1.58,1.15l0 0c0.29,0.14 0.43,0.29 0.72,0.43 0.15,0.14 0.29,0.14 0.29,0.29 0.43,0.29 0.72,0.43 1.15,0.72 0,0 0.15,0 0.15,0.14 0.28,0.15 0.72,0.43 1,0.58 0.15,0 0.29,0.14 0.29,0.14 0.29,0.15 0.43,0.29 0.72,0.43 0,0 0,0 0.15,0 0.43,0.29 1,0.44 1.44,0.72 0.14,0 0.14,0.15 0.28,0.15 0.44,0.14 0.87,0.29 1.16,0.43 0.14,0 0.28,0.15 0.57,0.15 0.43,0.14 0.72,0.28 1.15,0.43 0.15,0 0.29,0.14 0.44,0.14 0.57,0.14 1.01,0.43 1.58,0.43 28.23,4.61 34.71,-16.99 34.71,-16.99 -5.9,8.49 -17.28,12.53 -29.38,9.36 -0.58,-0.14 -1.01,-0.29 -1.58,-0.43 -0.15,0 -0.29,-0.15 -0.44,-0.15 -0.43,-0.14 -0.72,-0.29 -1.15,-0.43 -0.14,0 -0.29,-0.14 -0.43,-0.14 -0.43,-0.15 -0.87,-0.29 -1.15,-0.43 -0.15,0 -0.29,-0.15 -0.29,-0.15 -0.43,-0.29 -1.01,-0.43 -1.44,-0.72 -0.29,-0.14 -0.43,-0.29 -0.72,-0.43 -0.15,-0.15 -0.29,-0.15 -0.43,-0.29 -0.29,-0.14 -0.58,-0.29 -0.87,-0.57 -0.14,0 -0.14,-0.15 -0.29,-0.15 -0.43,-0.29 -0.72,-0.43 -1.15,-0.72 -0.14,-0.14 -0.29,-0.14 -0.29,-0.29 -0.28,-0.14 -0.43,-0.29 -0.72,-0.43 -0.57,-0.29 -1,-0.72 -1.58,-1.15 -0.14,-0.15 -0.29,-0.15 -0.29,-0.29 -5.33,-4.18 -9.5,-9.94 -11.52,-16.42 -2.16,-6.77 -1.58,-14.26 2.02,-20.45l-4.61 6.62zm0 0l0 0 0 0z"/>
      </g>
      <g>
       <path class="fil1" d="M78.89 38.7c-3.17,4.76 -3.6,10.66 -1.3,15.85 2.31,5.62 7.2,9.94 12.82,11.95 0.29,0.15 0.43,0.15 0.72,0.29 0.15,0 0.15,0 0.29,0.14 0.29,0.15 0.72,0.29 1.01,0.29 15.55,3.03 19.73,-7.92 20.88,-9.65 -3.74,5.33 -9.94,6.63 -17.57,4.76 -0.58,-0.15 -1.3,-0.44 -1.87,-0.58 -0.72,-0.29 -1.44,-0.58 -2.16,-0.86 -1.3,-0.72 -2.6,-1.45 -3.89,-2.31 -6.77,-5.18 -11.09,-14.98 -6.63,-23.04l-2.3 3.16zm0 0l0 0 0 0z"/>
      </g>
     </g>
    </g>
   </g>
  </g>
 </g>
</svg>
