<?xml version="1.0" encoding="UTF-8"?>
<!DOCTYPE svg PUBLIC "-//W3C//DTD SVG 1.1//EN" "http://www.w3.org/Graphics/SVG/1.1/DTD/svg11.dtd">
<!-- Creator: CorelDRAW -->
<svg xmlns="http://www.w3.org/2000/svg" xml:space="preserve" width="150px" height="150px" version="1.1" style="shape-rendering:geometricPrecision; text-rendering:geometricPrecision; image-rendering:optimizeQuality; fill-rule:evenodd; clip-rule:evenodd"
viewBox="0 0 150 150"
 xmlns:xlink="http://www.w3.org/1999/xlink"
 xmlns:xodm="http://www.corel.com/coreldraw/odm/2003">
 <defs>
  <style type="text/css">
   <![CDATA[
    .fil0 {fill:black;fill-rule:nonzero}
   ]]>
  </style>
 </defs>
 <g id="Layer_x0020_1">
  <metadata id="CorelCorpID_0Corel-Layer"/>
  <path class="fil0" d="M1.4 1.4l0 147.2 147.2 0 0 -147.2 -147.2 0zm78.86 114.34c0,14.33 -8.47,21.32 -20.72,21.32 -11.07,0 -17.49,-5.73 -20.75,-12.65l0 0 11.27 -6.82c2.17,3.86 3.82,7.12 8.56,7.12 3.94,0 7.18,-1.78 7.18,-8.7l0 -46.27 14.46 0 0 46zm32.64 20.99c-12.84,0 -21.14,-5.8 -25.19,-13.8l0 0 11.28 -6.53c2.95,4.84 6.81,8.07 13.63,8.07 5.73,0 9.06,-2.54 9.06,-6.49 0,-4.74 -3.43,-6.42 -9.75,-9.2l-3.46 -1.48c-9.98,-4.25 -16.6,-9.59 -16.6,-20.85 0,-10.38 7.9,-17.95 20.26,-17.95 8.79,0 15.11,2.73 19.66,10.74l-10.79 6.93c-2.37,-4.25 -4.93,-5.91 -8.89,-5.91 -4.05,0 -6.62,2.57 -6.62,5.91 0,4.15 2.57,5.83 8.49,8.4l3.46 1.48c11.76,5.04 18.38,10.19 18.38,21.74 0.01,12.45 -9.78,18.94 -22.92,18.94z"/>
 </g>
</svg>
