<?xml version="1.0" encoding="UTF-8"?>
<!DOCTYPE svg PUBLIC "-//W3C//DTD SVG 1.1//EN" "http://www.w3.org/Graphics/SVG/1.1/DTD/svg11.dtd">
<!-- Creator: CorelDRAW -->
<svg xmlns="http://www.w3.org/2000/svg" xml:space="preserve" width="150px" height="150px" version="1.1" style="shape-rendering:geometricPrecision; text-rendering:geometricPrecision; image-rendering:optimizeQuality; fill-rule:evenodd; clip-rule:evenodd"
viewBox="0 0 150 150"
 xmlns:xlink="http://www.w3.org/1999/xlink"
 xmlns:xodm="http://www.corel.com/coreldraw/odm/2003">
 <defs>
  <style type="text/css">
   <![CDATA[
    .fil0 {fill:black}
   ]]>
  </style>
 </defs>
 <g id="Layer_x0020_1">
  <metadata id="CorelCorpID_0Corel-Layer"/>
  <g id="_105553341560896">
   <path class="fil0" d="M36.11 28.98c-1.64,0 -2.8,0.19 -3.97,0.48l0 0.2 0.19 0c0.78,1.55 2.14,2.62 3.1,3.98 0.78,1.55 1.46,3.1 2.23,4.65 0.1,-0.1 0.19,-0.2 0.19,-0.2 1.37,-0.96 2.05,-2.52 2.05,-4.85 -0.58,-0.68 -0.68,-1.35 -1.17,-2.04 -0.58,-0.96 -1.84,-1.45 -2.62,-2.22l0 0z"/>
   <path class="fil0" d="M135.08 113.29c-7.77,-0.2 -13.78,0.58 -18.83,2.72 -1.45,0.58 -3.78,0.58 -3.98,2.42 0.78,0.77 0.87,2.03 1.56,3.11 1.16,1.94 3.19,4.55 5.04,5.92 2.04,1.55 4.08,3.1 6.21,4.46 3.78,2.33 8.05,3.69 11.73,6.02 2.14,1.35 4.27,3.1 6.42,4.56 1.06,0.77 1.73,2.04 3.09,2.52l0 -0.3c-0.68,-0.87 -0.87,-2.13 -1.55,-3.11 -0.97,-0.96 -1.94,-1.84 -2.91,-2.8 -2.82,-3.79 -6.31,-7.08 -10.09,-9.8 -3.11,-2.14 -9.9,-5.05 -11.15,-8.63 0,0 -0.11,-0.1 -0.2,-0.2 2.13,-0.19 4.66,-0.97 6.7,-1.56 3.29,-0.87 6.3,-0.67 9.69,-1.54 1.56,-0.4 3.11,-0.88 4.67,-1.36l0 -0.88c-1.75,-1.74 -3.01,-4.08 -4.86,-5.72 -4.94,-4.27 -10.38,-8.44 -16,-11.94 -3.02,-1.94 -6.9,-3.2 -10.1,-4.85 -1.16,-0.58 -3.1,-0.87 -3.78,-1.85 -1.75,-2.13 -2.73,-4.94 -3.99,-7.47 -2.81,-5.33 -5.53,-11.25 -7.95,-16.88 -1.75,-3.78 -2.81,-7.56 -4.94,-11.06 -10,-16.49 -20.87,-26.48 -37.55,-36.28 -3.58,-2.04 -7.85,-2.91 -12.41,-3.98 -2.43,-0.11 -4.85,-0.29 -7.28,-0.39 -1.55,-0.68 -3.11,-2.52 -4.47,-3.4 -5.53,-3.48 -19.78,-11.05 -23.86,-1.06 -2.62,6.31 3.88,12.52 6.12,15.72 1.64,2.23 3.78,4.76 4.94,7.28 0.68,1.64 0.87,3.39 1.55,5.13 1.55,4.27 3,9.03 5.05,13.01 1.06,2.04 2.23,4.18 3.58,6.01 0.79,1.07 2.14,1.55 2.43,3.3 -1.35,1.94 -1.46,4.85 -2.23,7.28 -3.49,10.96 -2.14,24.55 2.82,32.59 1.55,2.43 5.23,7.77 10.18,5.73 4.37,-1.74 3.4,-7.28 4.66,-12.12 0.29,-1.17 0.09,-1.95 0.68,-2.72l0 0.2c1.35,2.71 2.71,5.32 3.98,8.05 3.01,4.75 8.24,9.7 12.62,12.99 2.32,1.76 4.16,4.76 7.08,5.83l0 -0.29 -0.19 0c-0.59,-0.87 -1.46,-1.26 -2.23,-1.94 -1.75,-1.75 -3.69,-3.88 -5.05,-5.82 -4.07,-5.44 -7.67,-11.45 -10.87,-17.66 -1.55,-3.02 -2.91,-6.32 -4.17,-9.32 -0.58,-1.16 -0.58,-2.91 -1.55,-3.49 -1.46,2.14 -3.59,3.98 -4.65,6.6 -1.85,4.17 -2.04,9.32 -2.73,14.65 -0.38,0.1 -0.19,0 -0.38,0.19 -3.1,-0.77 -4.17,-3.97 -5.34,-6.68 -2.91,-6.9 -3.4,-17.96 -0.87,-25.92 0.67,-2.03 3.59,-8.43 2.42,-10.38 -0.59,-1.85 -2.53,-2.9 -3.59,-4.37 -1.26,-1.84 -2.63,-4.16 -3.49,-6.21 -2.33,-5.43 -3.5,-11.44 -6.02,-16.88 -1.16,-2.52 -3.21,-5.14 -4.85,-7.47 -1.85,-2.62 -3.89,-4.46 -5.34,-7.56 -0.48,-1.08 -1.16,-2.82 -0.39,-3.98 0.19,-0.78 0.58,-1.07 1.36,-1.27 1.26,-1.06 4.85,0.29 6.11,0.88 3.59,1.45 6.6,2.81 9.6,4.85 1.36,0.97 2.82,2.81 4.56,3.3l2.04 0c3.1,0.67 6.6,0.19 9.51,1.06 5.14,1.65 9.8,4.08 13.97,6.7 12.71,8.05 23.18,19.51 30.26,33.18 1.17,2.23 1.66,4.27 2.73,6.59 2.04,4.77 4.56,9.62 6.59,14.27 2.04,4.56 3.99,9.21 6.9,13 1.45,2.04 7.27,3.11 9.9,4.18 1.93,0.87 4.94,1.64 6.69,2.71 3.3,2.03 6.59,4.37 9.7,6.6 1.55,1.17 6.41,3.58 6.7,5.53l0 0z"/>
  </g>
 </g>
</svg>
