<?xml version="1.0" encoding="UTF-8"?>
<!DOCTYPE svg PUBLIC "-//W3C//DTD SVG 1.1//EN" "http://www.w3.org/Graphics/SVG/1.1/DTD/svg11.dtd">
<!-- Creator: CorelDRAW -->
<svg xmlns="http://www.w3.org/2000/svg" xml:space="preserve" width="150px" height="150px" version="1.1" style="shape-rendering:geometricPrecision; text-rendering:geometricPrecision; image-rendering:optimizeQuality; fill-rule:evenodd; clip-rule:evenodd"
viewBox="0 0 150 150"
 xmlns:xlink="http://www.w3.org/1999/xlink"
 xmlns:xodm="http://www.corel.com/coreldraw/odm/2003">
 <defs>
  <style type="text/css">
   <![CDATA[
    .fil1 {fill:#005CBF;fill-rule:nonzero}
    .fil0 {fill:#007AFF;fill-rule:nonzero}
    .fil2 {fill:white;fill-rule:nonzero}
   ]]>
  </style>
 </defs>
 <g id="Layer_x0020_1">
  <metadata id="CorelCorpID_0Corel-Layer"/>
  <g id="comp5F256-php">
   <g>
    <g>
     <g>
      <path class="fil0" d="M75 38.76c-38.04,0 -68.89,16.22 -68.89,36.24 0,20.02 30.85,36.24 68.89,36.24 38.04,0 68.89,-16.22 68.89,-36.24 0,-20.02 -30.85,-36.24 -68.89,-36.24z"/>
      <path class="fil1" d="M75 114.23c-18.88,0 -36.67,-3.89 -50.11,-10.95 -14.05,-7.39 -21.78,-17.43 -21.78,-28.28 0,-10.85 7.73,-20.89 21.78,-28.28 13.44,-7.06 31.23,-10.95 50.11,-10.95 18.88,0 36.68,3.89 50.11,10.95 14.05,7.39 21.78,17.43 21.78,28.28 0,10.85 -7.73,20.89 -21.78,28.28 -13.43,7.06 -31.23,10.95 -50.11,10.95zm0 -72.47c-17.93,0 -34.73,3.65 -47.32,10.27 -11.98,6.3 -18.58,14.45 -18.58,22.97 0,8.52 6.6,16.67 18.58,22.97 12.59,6.62 29.39,10.27 47.32,10.27 17.93,0 34.73,-3.65 47.32,-10.27 11.98,-6.3 18.58,-14.45 18.58,-22.97 0,-8.52 -6.6,-16.67 -18.58,-22.97 -12.59,-6.62 -29.39,-10.27 -47.32,-10.27z"/>
     </g>
     <g>
      <path class="fil2" d="M52.85 72.02c-1.7,8.72 -7.7,7.81 -15.09,7.81l2.95 -15.2c8.18,0 13.74,-0.88 12.14,7.39l0 0zm-26.01 23.21l7.91 0 1.87 -9.65c8.85,0 14.34,0.65 19.42,-4.11 5.62,-5.17 7.08,-14.36 3.08,-18.97 -2.09,-2.41 -5.45,-3.59 -10.01,-3.59l-15.23 0 -7.04 36.32zm39.99 -45.99l7.85 0 -1.87 9.64c6.78,0 13.07,-0.49 16.11,2.31 3.18,2.93 1.65,6.67 -1.79,24.35l-7.97 0c3.32,-17.1 3.94,-18.52 2.74,-19.81 -1.17,-1.25 -3.81,-0.99 -10.21,-0.99l-4.05 20.8 -7.85 0 7.04 -36.3 0 0zm47.77 22.78c-1.72,8.85 -7.9,7.81 -15.09,7.81l2.95 -15.2c8.22,0 13.73,-0.88 12.14,7.39zm-26.01 23.21l7.92 0 1.88 -9.65c9.3,0 14.45,0.54 19.42,-4.11 5.62,-5.17 7.08,-14.36 3.08,-18.97 -2.09,-2.41 -5.45,-3.59 -10.01,-3.59l-15.23 0 -7.06 36.32z"/>
     </g>
    </g>
   </g>
  </g>
  <g id="Layer_1">
  </g>
 </g>
</svg>
