<?xml version="1.0" encoding="UTF-8"?>
<!DOCTYPE svg PUBLIC "-//W3C//DTD SVG 1.1//EN" "http://www.w3.org/Graphics/SVG/1.1/DTD/svg11.dtd">
<!-- Creator: CorelDRAW -->
<svg xmlns="http://www.w3.org/2000/svg" xml:space="preserve" width="150px" height="150px" version="1.1" style="shape-rendering:geometricPrecision; text-rendering:geometricPrecision; image-rendering:optimizeQuality; fill-rule:evenodd; clip-rule:evenodd"
viewBox="0 0 150 150"
 xmlns:xlink="http://www.w3.org/1999/xlink"
 xmlns:xodm="http://www.corel.com/coreldraw/odm/2003">
 <defs>
  <style type="text/css">
   <![CDATA[
    .fil0 {fill:#157EFB}
   ]]>
  </style>
 </defs>
 <g id="Layer_x0020_1">
  <metadata id="CorelCorpID_0Corel-Layer"/>
  <g id="Page-1">
   <g id="icon-89-document-file-sql">
    <path id="document-file-sql" class="fil0" d="M100.09 122.68l0 10.05c0,5.55 -4.48,10.02 -10.02,10.02l-75.31 0c-5.55,0 -10.02,-4.51 -10.02,-10.07l0 -115.36c0,-5.57 4.51,-10.07 10.08,-10.07l50.14 0 0 30.12c0,5.58 4.51,10.03 10.07,10.03l25.06 0 0 10.03 -50.15 0c-8.33,0 -15.09,6.74 -15.09,15.05l0 35.15c0,8.31 6.7,15.05 15.09,15.05l50.15 0 0 0zm-30.11 -115.43l0 30.09c0,2.78 2.26,5.04 4.97,5.04l25.14 0 -30.11 -35.13 0 0zm-20.1 55.2c-5.53,0 -10.01,4.52 -10.01,10l0 35.21c0,5.52 4.53,10 10.01,10l85.37 0c5.53,0 10.01,-4.52 10.01,-10l0 -35.21c0,-5.52 -4.53,-10 -10.01,-10l-85.37 0 0 0zm48.59 44.58c-1.07,0.39 -2.22,0.59 -3.42,0.59l-4.97 0c-5.57,0 -10.06,-4.51 -10.06,-10.06l0 -15c0,-5.62 4.5,-10.07 10.06,-10.07l4.97 0c5.58,0 10.06,4.51 10.06,10.07l0 15c0,2.53 -0.92,4.83 -2.43,6.59l3.78 3.78 -3.55 3.54 -4.44 -4.44 0 0 0 0zm-4.44 -4.43l-3.98 0c-2.79,0 -5.01,-2.24 -5.01,-5.01l0 -15.06c0,-2.79 2.24,-5.02 5.01,-5.02l5.03 0c2.79,0 5.01,2.25 5.01,5.02l0 15.06c0,1.12 -0.36,2.16 -0.98,2.99l-6.85 -6.85 -3.55 3.55 5.32 5.32 0 0 0 0zm-34.06 -30.11c-5.56,0 -10.06,4.46 -10.06,10.04 0,5.54 4.45,10.04 10.03,10.04l4.98 0c2.79,0 5.06,2.22 5.06,5.01 0,2.78 -2.22,5.02 -5.01,5.02l-5.03 0c-2.77,0 -5.01,-2.29 -5.01,-4.99l0 -0.06 -5.02 0 0 0.03c0,5.54 4.48,10.04 10.06,10.04l4.97 0c5.56,0 10.06,-4.45 10.06,-10.04 0,-5.54 -4.46,-10.03 -10.04,-10.03l-4.97 0c-2.8,0 -5.06,-2.23 -5.06,-5.02 0,-2.77 2.22,-5.02 5.01,-5.02l5.03 0c2.77,0 5.01,2.27 5.01,5.02l5.02 0c0,-5.55 -4.49,-10.04 -10.06,-10.04l-4.97 0 0 0zm75.26 30.11l0 5.02 -25.1 0 0 -35.13 5.02 0 0 30.11 20.08 0 0 0z"/>
   </g>
  </g>
 </g>
</svg>
